<mxfile host="app.diagrams.net" modified="2023-09-26T07:59:22.672Z" agent="Mozilla/5.0 (Macintosh; Intel Mac OS X 10_15_7) AppleWebKit/537.36 (KHTML, like Gecko) Chrome/117.0.0.0 Safari/537.36" etag="Z9oQp4_bRO8JKG-Csod2" version="21.8.2" type="device">
  <diagram name="Page-1" id="2b2NqOnrOuqOFqGH1_tF">
    <mxGraphModel dx="1434" dy="927" grid="1" gridSize="10" guides="1" tooltips="1" connect="1" arrows="1" fold="1" page="1" pageScale="1" pageWidth="827" pageHeight="1169" math="0" shadow="0">
      <root>
        <mxCell id="0" />
        <mxCell id="1" parent="0" />
        <mxCell id="PA7hHzxN9LLe-bB14A4y-12" style="edgeStyle=orthogonalEdgeStyle;rounded=0;orthogonalLoop=1;jettySize=auto;html=1;exitX=0.5;exitY=1;exitDx=0;exitDy=0;entryX=0.5;entryY=0;entryDx=0;entryDy=0;" edge="1" parent="1" source="PA7hHzxN9LLe-bB14A4y-2" target="PA7hHzxN9LLe-bB14A4y-8">
          <mxGeometry relative="1" as="geometry" />
        </mxCell>
        <mxCell id="PA7hHzxN9LLe-bB14A4y-13" style="edgeStyle=orthogonalEdgeStyle;rounded=0;orthogonalLoop=1;jettySize=auto;html=1;exitX=0.5;exitY=1;exitDx=0;exitDy=0;entryX=0.5;entryY=0;entryDx=0;entryDy=0;" edge="1" parent="1" source="PA7hHzxN9LLe-bB14A4y-2" target="PA7hHzxN9LLe-bB14A4y-9">
          <mxGeometry relative="1" as="geometry" />
        </mxCell>
        <mxCell id="PA7hHzxN9LLe-bB14A4y-2" value="Integration" style="rounded=1;whiteSpace=wrap;html=1;" vertex="1" parent="1">
          <mxGeometry x="240" y="440" width="120" height="60" as="geometry" />
        </mxCell>
        <mxCell id="PA7hHzxN9LLe-bB14A4y-3" value="Operation" style="rounded=1;whiteSpace=wrap;html=1;" vertex="1" parent="1">
          <mxGeometry x="80" y="680" width="120" height="60" as="geometry" />
        </mxCell>
        <mxCell id="PA7hHzxN9LLe-bB14A4y-4" value="Operation" style="rounded=1;whiteSpace=wrap;html=1;" vertex="1" parent="1">
          <mxGeometry x="160" y="800" width="120" height="60" as="geometry" />
        </mxCell>
        <mxCell id="PA7hHzxN9LLe-bB14A4y-5" value="Operation" style="rounded=1;whiteSpace=wrap;html=1;" vertex="1" parent="1">
          <mxGeometry x="320" y="800" width="120" height="60" as="geometry" />
        </mxCell>
        <mxCell id="PA7hHzxN9LLe-bB14A4y-14" style="edgeStyle=orthogonalEdgeStyle;rounded=0;orthogonalLoop=1;jettySize=auto;html=1;exitX=0.5;exitY=1;exitDx=0;exitDy=0;entryX=0.5;entryY=0;entryDx=0;entryDy=0;" edge="1" parent="1" source="PA7hHzxN9LLe-bB14A4y-8" target="PA7hHzxN9LLe-bB14A4y-3">
          <mxGeometry relative="1" as="geometry" />
        </mxCell>
        <mxCell id="PA7hHzxN9LLe-bB14A4y-15" style="edgeStyle=orthogonalEdgeStyle;rounded=0;orthogonalLoop=1;jettySize=auto;html=1;exitX=0.5;exitY=1;exitDx=0;exitDy=0;entryX=0.5;entryY=0;entryDx=0;entryDy=0;" edge="1" parent="1" source="PA7hHzxN9LLe-bB14A4y-8" target="PA7hHzxN9LLe-bB14A4y-10">
          <mxGeometry relative="1" as="geometry" />
        </mxCell>
        <mxCell id="PA7hHzxN9LLe-bB14A4y-8" value="Integration" style="rounded=1;whiteSpace=wrap;html=1;" vertex="1" parent="1">
          <mxGeometry x="160" y="560" width="120" height="60" as="geometry" />
        </mxCell>
        <mxCell id="PA7hHzxN9LLe-bB14A4y-9" value="Operation" style="rounded=1;whiteSpace=wrap;html=1;" vertex="1" parent="1">
          <mxGeometry x="320" y="560" width="120" height="60" as="geometry" />
        </mxCell>
        <mxCell id="PA7hHzxN9LLe-bB14A4y-17" style="edgeStyle=orthogonalEdgeStyle;rounded=0;orthogonalLoop=1;jettySize=auto;html=1;exitX=0.5;exitY=1;exitDx=0;exitDy=0;entryX=0.5;entryY=0;entryDx=0;entryDy=0;" edge="1" parent="1" source="PA7hHzxN9LLe-bB14A4y-10" target="PA7hHzxN9LLe-bB14A4y-4">
          <mxGeometry relative="1" as="geometry" />
        </mxCell>
        <mxCell id="PA7hHzxN9LLe-bB14A4y-18" style="edgeStyle=orthogonalEdgeStyle;rounded=0;orthogonalLoop=1;jettySize=auto;html=1;exitX=0.5;exitY=1;exitDx=0;exitDy=0;entryX=0.5;entryY=0;entryDx=0;entryDy=0;" edge="1" parent="1" source="PA7hHzxN9LLe-bB14A4y-10" target="PA7hHzxN9LLe-bB14A4y-5">
          <mxGeometry relative="1" as="geometry" />
        </mxCell>
        <mxCell id="PA7hHzxN9LLe-bB14A4y-10" value="Integration" style="rounded=1;whiteSpace=wrap;html=1;" vertex="1" parent="1">
          <mxGeometry x="240" y="680" width="120" height="60" as="geometry" />
        </mxCell>
      </root>
    </mxGraphModel>
  </diagram>
</mxfile>
